<?xml version="1.0" encoding="UTF-8"?>
<svg xmlns="http://www.w3.org/2000/svg" width="900" height="180" viewBox="0 0 900 180">
  <defs>
    <pattern id="tgrid" width="40" height="40" patternUnits="userSpaceOnUse">
      <path d="M 40 0 L 0 0 0 40" fill="none" stroke="#ff003c" stroke-width="0.4" opacity="0.08"/>
    </pattern>
    <filter id="tglow" x="-30%" y="-30%" width="160%" height="160%">
      <feGaussianBlur stdDeviation="1.2"/>
    </filter>
  </defs>

  <rect width="900" height="180" fill="#0a0a0a"/>
  <rect width="900" height="180" fill="url(#tgrid)"/>

  <g stroke="#ff003c" stroke-width="1.2" fill="none" opacity="0.7">
    <path d="M 12 12 L 12 28 M 12 12 L 28 12"/>
    <path d="M 888 12 L 888 28 M 888 12 L 872 12"/>
    <path d="M 12 168 L 12 152 M 12 168 L 28 168"/>
    <path d="M 888 168 L 888 152 M 888 168 L 872 168"/>
  </g>

  <g font-family="ui-monospace,SFMono-Regular,Menlo,monospace">
    <circle cx="40" cy="28" r="3" fill="#ff003c">
      <animate attributeName="opacity" values="1;0.3;1" dur="1.6s" repeatCount="indefinite"/>
    </circle>
    <text x="52" y="32" font-size="10" fill="#ff003c" letter-spacing="3" font-weight="700">▎TELEMETRY</text>
    <text x="860" y="32" font-size="10" fill="#666" letter-spacing="2" text-anchor="end"><!--UPDATED-->updated 02:08 UTC<!--/UPDATED--></text>
    <line x1="32" y1="48" x2="868" y2="48" stroke="#ff003c" stroke-width="0.5" opacity="0.3"/>
  </g>

  <g font-family="ui-monospace,SFMono-Regular,Menlo,monospace">
    <g transform="translate(80, 88)">
      <text font-size="10" fill="#888" letter-spacing="2">SHIPPED</text>
      <text y="38" font-size="38" font-weight="700" fill="#ff003c" filter="url(#tglow)"><!--SHIPPED-->56<!--/SHIPPED--></text>
      <text y="58" font-size="9" fill="#666" letter-spacing="2">MERGED PRs</text>
    </g>
    <line x1="220" y1="68" x2="220" y2="148" stroke="#ff003c" stroke-width="0.5" opacity="0.25"/>

    <g transform="translate(260, 88)">
      <text font-size="10" fill="#888" letter-spacing="2">CONTRIB</text>
      <text y="38" font-size="38" font-weight="700" fill="#ff003c" filter="url(#tglow)"><!--CONTRIB-->3255<!--/CONTRIB--></text>
      <text y="58" font-size="9" fill="#666" letter-spacing="2">LAST 365 DAYS</text>
    </g>
    <line x1="430" y1="68" x2="430" y2="148" stroke="#ff003c" stroke-width="0.5" opacity="0.25"/>

    <g transform="translate(470, 88)">
      <text font-size="10" fill="#888" letter-spacing="2">FOLLOWERS</text>
      <text y="38" font-size="38" font-weight="700" fill="#ff003c" filter="url(#tglow)"><!--FOLLOWERS-->17<!--/FOLLOWERS--></text>
      <text y="58" font-size="9" fill="#666" letter-spacing="2">ORBITING</text>
    </g>
    <line x1="640" y1="68" x2="640" y2="148" stroke="#ff003c" stroke-width="0.5" opacity="0.25"/>

    <g transform="translate(680, 88)">
      <text font-size="10" fill="#888" letter-spacing="2">STARS</text>
      <text y="38" font-size="38" font-weight="700" fill="#ff003c" filter="url(#tglow)"><!--STARS-->10<!--/STARS--></text>
      <text y="58" font-size="9" fill="#666" letter-spacing="2">ACROSS OWNED REPOS</text>
    </g>
  </g>
</svg>
